<svg xmlns="http://www.w3.org/2000/svg" version="1.1" viewBox="-1.77 -1.75 103.52 103.52">
 <g>
  <path d="m40.008 15.523c-0.019531 1.0273 0.86328 1.5352 0.98438 1.6133 0.64062-1.1992 1.293-1.75 2.3203-1.9258 1.7188-0.29297 3.8594 0.42969 4.1289 0.66797 1.4766 1.3984 1.1484 3.9883 0.42188 4.7695-0.42969 0.45312-3.4531 1.8477-6.0273 0.96875-0.72266 0.57812-1.6523 1.9297-0.20313 3.082 0.97266 0.76562 1.7109-0.21484 2.9414-0.62109 1.6484-0.55078 2.3555 0.21484 3.0156 1.1133-2.0547-1.3633-4.4805 0.79297-5.6562 2.0352-1.2305 1.2969-3.8164 2.8203-5.8281 0.4375-0.35547 2.1328 0.84766 3.3008 2.1758 3.7148 1.625 0.50391 3.2344 0.050782 4.9336-1.3594l1.6641-1.3867-0.37891 2.1367c-0.42969 2.4297-0.26172 4.1602 1.707 5.7227 0.03125-1.4023 0.50391-2.4219 0.96484-3.0898 0.80078-1.1602 2.0781-1.9766 3.4023-2.1836l1.0078-0.14453-0.09375 1.0078c-0.34766 3.7266 1.3945 6.2148 3.9023 7.7812 1.1523 0.71875 3.75 1.7969 5.0078 1.3867-1.9688-1.5078-3.1797-3.7812-2.8203-5.7383 0.51953-2.8672 0.53516-3.5859-1.3984-6.9453 1.3008 2.0977 4.1797 1.7617 5.5469 1.6719-1.4961-1.3281-0.16016-3.1914 0.50781-5.293 0.69141-2.1367-0.97656-4.6406-2.6562-5.7227 2.4258 0.96484 4.1016 0.53516 4.7266-0.21484-1.5391-0.13281-2.8867-1.5117-3.543-3.2148-0.63281-1.668-1.3828-3.2539-3.8672-5.0703 4.832-1.4336 3.4688-5.6562 3.4648-5.7227 0.003906 0.089844-0.54297 1.0586-2.3398 1.1719-1.2305 0.054687-2.9883-0.96094-4.4297 0.71094-1.8711-0.84766-3.832-0.46094-5.9688-0.21484-2.9453 0.34375-2.5312 2.6367-3.8477 3.7461-1.0664 0.25781-3.3867-0.007812-4.9531 1.0586-0.60156 0.40625-0.19531 3.1523-0.11719 3.2969 0.33594 0.66016 0.72656 0.72656 1.3047 0.75391z"/>
  <path d="m37.062 21.934c2.5977-0.21094 4.2461-2.4961 7.6484-1.2812 0.90234 0.3125 1.0078-0.48438 0.73437-0.77344-1.9023-2.0156-4.1094-1.7031-7.8125-0.78516-2.0039 0.50391-4.8086 0.1875-6.3281-2.1133 0.45312 4.0547 3.2305 5.1562 5.7578 4.9531z"/>
  <path d="m50.184 74.039c-0.83203-1.2422-1.9102-1.9883-3.1211-2.5977-0.28125 0.035156-0.58594 0.078125-0.89062 0.11719-1.0234 0.21875-2.0625 0.52344-2.0625 0.52344s0.82031-0.75 1.7383-1.4492c0.09375-0.0625 0.17969-0.12109 0.26953-0.18359-0.26172-0.25781-0.47656-0.53516-0.70703-0.80469-0.41797 0.054688-1.0039 0.13672-1.6094 0.21875-1.0234 0.21094-2.0664 0.51562-2.0664 0.51562s0.82031-0.75 1.7344-1.4492c0.34766-0.23438 0.67578-0.45703 0.97656-0.65625-0.19141-0.35156-0.34766-0.69531-0.47656-1.0391-0.15625 0.019531-0.3125 0.042969-0.47266 0.066406-1.0234 0.21094-2.0625 0.51562-2.0625 0.51562s0.82031-0.75391 1.7305-1.457c0.16406-0.10938 0.32813-0.21484 0.48438-0.32422-0.53516-3.0547 1.4961-5.4023 5.9883-4.8555 0.070312-0.40234 0.10156-0.78125 0.070312-1.1094-0.0625-0.76953-0.23438-1.3906-0.44922-1.9492-0.41797 0.054687-1.0195 0.14062-1.6484 0.22266-1.0234 0.21484-2.0625 0.52734-2.0625 0.52734s0.81641-0.75781 1.7305-1.4609c0.41016-0.26953 0.80859-0.53516 1.1328-0.75781-0.25781-0.28125-0.57031-0.50391-0.89062-0.72266-0.74219 0.085937-2.2031 0.26953-2.9922 0.37891-1.0195 0.21094-2.0664 0.51953-2.0664 0.51953s0.82422-0.75391 1.7344-1.4531c0.32813-0.21875 0.64453-0.42969 0.92969-0.62109-0.26172-0.089844-0.53516-0.17969-0.8125-0.26562-0.89062 0.13672-2.1719 0.32812-2.9102 0.44531-1.1445 0.26562-2.3086 0.64062-2.3086 0.64062s0.9375-0.82031 1.9727-1.5742c0.16406-0.10547 0.32422-0.20703 0.48828-0.30859-0.51563-0.15234-1.0312-0.32031-1.5586-0.50391-4.8594 0.5625-9.6211 3.0156-10.031 7.8594-0.51172 6.0742 3.0273 6.0039 6.0703 8.4258 1.8125 1.4336 3.4414 2.6758 4.8711 4.5547 0.96484 1.2695 1.4453 4.3359-0.43359 6.3164-1.4531 1.5273-5.2578 0.91406-7.2812-0.51172-1.0977-0.77344-4.9531-2.4102-7.6445-0.085937 1.5859-0.0625 4.2227 0.49609 4.3711 2.6406-1.2344-0.046875-1.7695 0.011719-2.5547 0.11719-2.4922 0.34375-4.3281 1.6406-3.8711 4.9297 1.6211-2.6094 4.3789-2.3398 6.793-2.3047-1.6211 0.94922-2.3906 3.582-0.12891 5.8984 0.37109-3.2383 2.8555-4.293 4.9531-4.4023 0.99219-0.0625 5.0234 0.078125 5.0234 0.078125s2.6562 0.21484 3.75-1.0078c1.3008-1.4531 2.543-5.1055 2.543-5.1055s1.0586-2.4297 1.5117-4.7578c0.46094-0.007812 0.89453 0.039063 1.168 0.14062 1.1367 0.41797 1.6602 1.6953 1.6523 2.8789 0.51563-1.5156 0.29297-3.5195-0.57422-4.8125z"/>
  <path d="m79.91 19.168c1.8945 3.75 1.0234 9.7656-5.5547 12.02-2.6875 0.91797-4.9297 2.0156-6.7031 3.25-1.3164-3.9414 1.7227-5.4648 4.0352-7.1094 1.8008-1.2852 3.5391-3.3984 3.6172-6.543 0.19531-7.2695-7.793-9.8164-11.238-9.9102 4.4453 3.7969 4.9453 10.613 1.5117 15.402-1.3984 1.9492-2.3281 4.3438-1.6484 6.6758 0.29687 1.043 0.91797 2.1562 1.6836 3.1875-1.4414 1.4531-2.3359 3.0508-2.5195 4.7656-0.25391 2.3164 0.39844 4.0039 2.3281 6.043 2.957 3.1211 4.2773 5.8047 3.6211 7.375-0.46094 1.1133-1.1836 1.7344-2.2422 2.0625-0.77344-1.9805-2.0781-3.9219-3.6992-5.6133-1.5547-1.6211-6.0859-2.6367-7.4102-8.8125-3.5469-2.1211-5.8633-4.5859-5.8555-8.8398-0.48828 0.24609-0.98828 0.63281-1.3789 1.1953-0.64844 0.94922-0.83984 2.1914-0.54297 3.5938l0.36328 1.7109-1.5234-0.85156c-0.84375-0.46875-1.5195-0.95703-2.0664-1.4727-0.078125 0.03125-0.15625 0.082031-0.28516 0.09375 0 0-1.0859 0.14844-2.168 0.28906-1.0195 0.21484-2.0625 0.51953-2.0625 0.51953s0.82031-0.75 1.7305-1.4531c0.61328-0.40625 1.1992-0.79688 1.5391-1.0234-0.12109-0.21484-0.22266-0.43359-0.30859-0.65625-0.35547 0.042969-1.0469 0.125-1.7578 0.20312-0.94531 0.17578-1.9102 0.4375-1.9102 0.4375s0.74219-0.71094 1.5781-1.3711c0.83984-0.58594 1.6719-1.1641 1.6836-1.168-0.015624-0.28516-0.019531-0.57422-0.011718-0.87109-1.4648 0.82812-2.9336 1.0703-4.4023 0.75-0.59766 0.78516-1.4023 1.2539-2.168 1.6836-2.7148-0.15625-4.3086-0.30078-7.7227-1.4805-0.92578-2.3945-3.3672-5.9414-2.7734-8.625 0.14062-0.625 0.95312-2.7969 1.1406-3.4336 0.74609-2.4414-0.11719-4.9141-2.0703-5.3047 0.59375 0.84766 0.78516 2.3711 0.19922 3.6094-0.30859 0.66016-0.49219 1.1406-0.73438 1.4688-0.28516-2.9141-2.832-5.0195-5.8555-3.3047 2.0352 0.050782 3.5977 1.7031 3.2773 4.5703-1.3047-1.5938-2.6992-1.3945-3.4961-1.1914-1.5078 0.35547-1.7656 2.1055-1.2344 3.5508 1.1367-2.1914 3.4336-1.5508 3.8242 0.089844 0.74609 3.1172-0.61719 3.9922-3.2109 2.7617 0.78906 4.4766 3.6953 1.9414 5.1797 4.1328 1.6758 2.4805 1.5586 5.6367 3.5625 8.1016 1.3906 1.7109 4.2578 2.5742 6.0586 3.7852 0.042969 0.03125 0.074219 0.039062 0.11328 0.070312-3.8867 1.6836-7.6758 3.2305-10.113 4.2148-0.89453-0.32031-2.4766-0.97656-3.0273-1.1602-2.4922-0.88672-5.082-0.097657-5.5586 1.9102 0.89844-0.57422 2.7148-0.72656 3.9688-0.066406 0.66406 0.35547 0.92969 0.57422 1.25 0.83594-3.0234 0.16016-5.3125 2.7188-3.6719 5.9297 0.34766-1.832 1.9141-3.6602 4.8711-3.2031-1.6992 1.2734-1.5469 2.7344-1.3867 3.5703 0.30859 1.582 1.7969 1.9062 3.6289 1.4375-2.2227-1.2852-1.4648-3.6172 0.25781-3.9609 3.2578-0.63281 4.0977 0.82031 2.7148 3.4453 4.6758-0.62109 2.1289-3.8164 4.5117-5.1758 0.96875-0.55469 3.2461-1.1367 5.3633-1.7969 2.2539-0.70703 3.8945-1.3359 6.0703-2.2695 2.6836-1.1523 4.1758-2.0664 7.7148-4.1289 0.56641-0.32812 2.1484-1.4375 2.1484-1.4375s-0.71484 1.1367-1.5508 2.2344c-1.6445 1.8789-3.5664 3.1641-6.2852 4.625-0.82422 0.44141-2.4922 1.0664-4.75 1.9414 1.5586 0.77734 3.2227 1.25 4.832 1.707 3.8477 1.0781 7.8281 2.1953 8.293 7.7305 0.15625 1.8008-0.69922 3.9727-1.3047 5.2656-0.46875 2.4492 0.019532 4.9102 3.7773 8.7656 1.5312 1.5625 3.9766 2.6797 6.0547 2.8789 2.0078 0.19141 4.8086-0.046875 7.1523 1.4727 1.3477 0.86719 3.2578 3.4648 1.2344 5.9766-1.3555 1.6758-5.2852 0.99609-7.3359-0.45703-1.0977-0.77344-4.9609-2.4141-7.6562-0.085937 1.5898-0.066407 4.2227 0.49609 4.3828 2.6367-1.2383-0.039063-1.7734 0.011718-2.5586 0.125-2.4961 0.33594-4.3281 1.6445-3.8672 4.9258 1.6172-2.6055 4.3711-2.3359 6.7891-2.3047-1.6094 0.95312-2.3906 3.582-0.125 5.9023 0.36719-3.2344 2.8555-4.2891 4.9531-4.3945 0.98828-0.070313 5.0195 0.070312 5.0195 0.070312s2.6367 0.19531 3.7461-1.0117c1.2891-1.4102 1.9531-3.2148 2.2539-4.8281 0.48438-2.7109 0.36719-5.8477 0.14062-6.5898-0.039063-0.14062-0.097656-0.27344-0.14844-0.41797 1.7773-0.32812 4.2539 0.85156 4.6523 2.5781-0.26953-3.5391-2.6289-5.0938-5.8516-5.1953 2.5078-0.23047 4.0508-2.0039 4.5508-4.4531-1.5391 1.5781-2.7383 1.9141-4.3164 1.9766-1.4922 0.058594-2.75-1.1992-3.0703-1.6211-0.26172-0.34375-0.52344-0.68359-0.76953-1.0195-0.25391 0.035156-0.52734 0.070313-0.80078 0.10938-1.0195 0.21484-2.0625 0.52344-2.0625 0.52344s0.81641-0.75781 1.7344-1.4531c0.125-0.085937 0.24219-0.16406 0.36719-0.25-0.24219-0.35547-0.46094-0.70703-0.67188-1.0586-0.41016 0.054687-0.96094 0.12891-1.5117 0.20703-1.0234 0.21484-2.0664 0.51953-2.0664 0.51953s0.82422-0.75 1.7383-1.4492c0.39844-0.26953 0.78125-0.52734 1.1055-0.74609-0.14062-0.35547-0.23438-0.71094-0.3125-1.0703-0.29688 0.039063-0.60938 0.082032-0.93359 0.12891-1.0234 0.21484-2.0703 0.51953-2.0703 0.51953s0.82422-0.75 1.7344-1.4531c0.41797-0.27734 0.82422-0.55469 1.1562-0.77344 0.042969-0.43359 0.14453-0.87109 0.30859-1.3203 0.43359-1.1484 0.50391-2.3789 0.33984-3.6328 1.9453-0.38281 3.7344-1.0898 5.1836-2.1797 2.5586-1.9219 4.0039-4.7656 4.168-8.2344 0.22266-4.6016-2.5508-7.8828-5.9219-10.672-0.90625 0.16797-1.8477 1.0977-2.1328 1.4336 2.9531 2.3281 5.7891 5.168 5.5938 9.1172-0.11719 2.5156-1.0664 4.4922-2.7383 5.9609 0.45703-2.4766-1.0195-5.5234-4.3867-9.082-1.4414-1.5078-1.8438-2.5-1.6758-4.0742 0.19531-1.7266 1.4922-3.3906 3.6641-4.8594 3.7031-1.9648 6.1133-1.2305 8.1914-1.0898 4.8711 0.32812 7.0078-2.2305 7.9727-4.168 2.9531-5.9062-1.793-10.938-5.4492-11.895z"/>
 </g>
<text x="0.0" y="117.5" font-size="5.0" font-weight="bold" font-family="Arbeit Regular, Helvetica, Arial-Unicode, Arial, Sans-serif" fill="#000000">Created by Ben Didier</text><text x="0.0" y="122.5" font-size="5.0" font-weight="bold" font-family="Arbeit Regular, Helvetica, Arial-Unicode, Arial, Sans-serif" fill="#000000">from Noun Project</text></svg>